  0
SECTION
  2
HEADER
  9
$ACADVER
  1
AC1032
  9
$ACADMAINTVER
 90
4
  9
$DWGCODEPAGE
  3
ANSI_1252
  9
$LASTSAVEDBY
  1
ezdxf
  9
$REQUIREDVERSIONS
160
0
  9
$INSBASE
 10
0.0
 20
0.0
 30
0.0
  9
$EXTMIN
 10
1e+20
 20
1e+20
 30
1e+20
  9
$EXTMAX
 10
-1e+20
 20
-1e+20
 30
-1e+20
  9
$LIMMIN
 10
0.0
 20
0.0
  9
$LIMMAX
 10
420.0
 20
297.0
  9
$ORTHOMODE
 70
0
  9
$REGENMODE
 70
1
  9
$FILLMODE
 70
1
  9
$QTEXTMODE
 70
0
  9
$MIRRTEXT
 70
1
  9
$LTSCALE
 40
1.0
  9
$ATTMODE
 70
1
  9
$TEXTSIZE
 40
2.5
  9
$TRACEWID
 40
1.0
  9
$TEXTSTYLE
  7
Standard
  9
$CLAYER
  8
0
  9
$CELTYPE
  6
ByLayer
  9
$CECOLOR
 62
256
  9
$CELTSCALE
 40
1.0
  9
$DISPSILH
 70
0
  9
$DIMSCALE
 40
1.0
  9
$DIMASZ
 40
2.5
  9
$DIMEXO
 40
0.625
  9
$DIMDLI
 40
3.75
  9
$DIMRND
 40
0.0
  9
$DIMDLE
 40
0.0
  9
$DIMEXE
 40
1.25
  9
$DIMTP
 40
0.0
  9
$DIMTM
 40
0.0
  9
$DIMTXT
 40
2.5
  9
$DIMCEN
 40
2.5
  9
$DIMTSZ
 40
0.0
  9
$DIMTOL
 70
0
  9
$DIMLIM
 70
0
  9
$DIMTIH
 70
0
  9
$DIMTOH
 70
0
  9
$DIMSE1
 70
0
  9
$DIMSE2
 70
0
  9
$DIMTAD
 70
1
  9
$DIMZIN
 70
8
  9
$DIMBLK
  1

  9
$DIMASO
 70
1
  9
$DIMSHO
 70
1
  9
$DIMPOST
  1

  9
$DIMAPOST
  1

  9
$DIMALT
 70
0
  9
$DIMALTD
 70
3
  9
$DIMALTF
 40
0.03937007874
  9
$DIMLFAC
 40
1.0
  9
$DIMTOFL
 70
1
  9
$DIMTVP
 40
0.0
  9
$DIMTIX
 70
0
  9
$DIMSOXD
 70
0
  9
$DIMSAH
 70
0
  9
$DIMBLK1
  1

  9
$DIMBLK2
  1

  9
$DIMSTYLE
  2
ISO-25
  9
$DIMCLRD
 70
0
  9
$DIMCLRE
 70
0
  9
$DIMCLRT
 70
0
  9
$DIMTFAC
 40
1.0
  9
$DIMGAP
 40
0.625
  9
$DIMJUST
 70
0
  9
$DIMSD1
 70
0
  9
$DIMSD2
 70
0
  9
$DIMTOLJ
 70
0
  9
$DIMTZIN
 70
8
  9
$DIMALTZ
 70
0
  9
$DIMALTTZ
 70
0
  9
$DIMUPT
 70
0
  9
$DIMDEC
 70
2
  9
$DIMTDEC
 70
2
  9
$DIMALTU
 70
2
  9
$DIMALTTD
 70
3
  9
$DIMTXSTY
  7
Standard
  9
$DIMAUNIT
 70
0
  9
$DIMADEC
 70
0
  9
$DIMALTRND
 40
0.0
  9
$DIMAZIN
 70
0
  9
$DIMDSEP
 70
44
  9
$DIMATFIT
 70
3
  9
$DIMFRAC
 70
0
  9
$DIMLDRBLK
  1

  9
$DIMLUNIT
 70
2
  9
$DIMLWD
 70
-2
  9
$DIMLWE
 70
-2
  9
$DIMTMOVE
 70
0
  9
$DIMFXL
 40
1.0
  9
$DIMFXLON
 70
0
  9
$DIMJOGANG
 40
0.785398163397
  9
$DIMTFILL
 70
0
  9
$DIMTFILLCLR
 70
0
  9
$DIMARCSYM
 70
0
  9
$DIMLTYPE
  6

  9
$DIMLTEX1
  6

  9
$DIMLTEX2
  6

  9
$DIMTXTDIRECTION
 70
0
  9
$LUNITS
 70
2
  9
$LUPREC
 70
4
  9
$SKETCHINC
 40
1.0
  9
$FILLETRAD
 40
10.0
  9
$AUNITS
 70
0
  9
$AUPREC
 70
2
  9
$MENU
  1
.
  9
$ELEVATION
 40
0.0
  9
$PELEVATION
 40
0.0
  9
$THICKNESS
 40
0.0
  9
$LIMCHECK
 70
0
  9
$CHAMFERA
 40
0.0
  9
$CHAMFERB
 40
0.0
  9
$CHAMFERC
 40
0.0
  9
$CHAMFERD
 40
0.0
  9
$SKPOLY
 70
0
  9
$TDCREATE
 40
2461256.9831828703
  9
$TDUCREATE
 40
2458532.153996898
  9
$TDUPDATE
 40
2461256.9831828703
  9
$TDUUPDATE
 40
2458532.1544311
  9
$TDINDWG
 40
0.0
  9
$TDUSRTIMER
 40
0.0
  9
$USRTIMER
 70
1
  9
$ANGBASE
 50
0.0
  9
$ANGDIR
 70
0
  9
$PDMODE
 70
0
  9
$PDSIZE
 40
0.0
  9
$PLINEWID
 40
0.0
  9
$SPLFRAME
 70
0
  9
$SPLINETYPE
 70
6
  9
$SPLINESEGS
 70
8
  9
$HANDSEED
  5
B8
  9
$SURFTAB1
 70
6
  9
$SURFTAB2
 70
6
  9
$SURFTYPE
 70
6
  9
$SURFU
 70
6
  9
$SURFV
 70
6
  9
$UCSBASE
  2

  9
$UCSNAME
  2

  9
$UCSORG
 10
0.0
 20
0.0
 30
0.0
  9
$UCSXDIR
 10
1.0
 20
0.0
 30
0.0
  9
$UCSYDIR
 10
0.0
 20
1.0
 30
0.0
  9
$UCSORTHOREF
  2

  9
$UCSORTHOVIEW
 70
0
  9
$UCSORGTOP
 10
0.0
 20
0.0
 30
0.0
  9
$UCSORGBOTTOM
 10
0.0
 20
0.0
 30
0.0
  9
$UCSORGLEFT
 10
0.0
 20
0.0
 30
0.0
  9
$UCSORGRIGHT
 10
0.0
 20
0.0
 30
0.0
  9
$UCSORGFRONT
 10
0.0
 20
0.0
 30
0.0
  9
$UCSORGBACK
 10
0.0
 20
0.0
 30
0.0
  9
$PUCSBASE
  2

  9
$PUCSNAME
  2

  9
$PUCSORG
 10
0.0
 20
0.0
 30
0.0
  9
$PUCSXDIR
 10
1.0
 20
0.0
 30
0.0
  9
$PUCSYDIR
 10
0.0
 20
1.0
 30
0.0
  9
$PUCSORTHOREF
  2

  9
$PUCSORTHOVIEW
 70
0
  9
$PUCSORGTOP
 10
0.0
 20
0.0
 30
0.0
  9
$PUCSORGBOTTOM
 10
0.0
 20
0.0
 30
0.0
  9
$PUCSORGLEFT
 10
0.0
 20
0.0
 30
0.0
  9
$PUCSORGRIGHT
 10
0.0
 20
0.0
 30
0.0
  9
$PUCSORGFRONT
 10
0.0
 20
0.0
 30
0.0
  9
$PUCSORGBACK
 10
0.0
 20
0.0
 30
0.0
  9
$USERI1
 70
0
  9
$USERI2
 70
0
  9
$USERI3
 70
0
  9
$USERI4
 70
0
  9
$USERI5
 70
0
  9
$USERR1
 40
0.0
  9
$USERR2
 40
0.0
  9
$USERR3
 40
0.0
  9
$USERR4
 40
0.0
  9
$USERR5
 40
0.0
  9
$WORLDVIEW
 70
1
  9
$SHADEDGE
 70
3
  9
$SHADEDIF
 70
70
  9
$TILEMODE
 70
1
  9
$MAXACTVP
 70
64
  9
$PINSBASE
 10
0.0
 20
0.0
 30
0.0
  9
$PLIMCHECK
 70
0
  9
$PEXTMIN
 10
1e+20
 20
1e+20
 30
1e+20
  9
$PEXTMAX
 10
-1e+20
 20
-1e+20
 30
-1e+20
  9
$PLIMMIN
 10
0.0
 20
0.0
  9
$PLIMMAX
 10
420.0
 20
297.0
  9
$UNITMODE
 70
0
  9
$VISRETAIN
 70
1
  9
$PLINEGEN
 70
0
  9
$PSLTSCALE
 70
1
  9
$TREEDEPTH
 70
3020
  9
$CMLSTYLE
  2
Standard
  9
$CMLJUST
 70
0
  9
$CMLSCALE
 40
20.0
  9
$PROXYGRAPHICS
 70
1
  9
$MEASUREMENT
 70
1
  9
$CELWEIGHT
370
-1
  9
$ENDCAPS
280
0
  9
$JOINSTYLE
280
0
  9
$LWDISPLAY
290
0
  9
$INSUNITS
 70
0
  9
$HYPERLINKBASE
  1

  9
$STYLESHEET
  1

  9
$XEDIT
290
1
  9
$CEPSNTYPE
380
0
  9
$PSTYLEMODE
290
1
  9
$FINGERPRINTGUID
  2
{866EA58C-5395-4509-B4B5-24B78D741242}
  9
$VERSIONGUID
  2
{1C651708-1A4A-4A2C-AA88-012BB3671B43}
  9
$EXTNAMES
290
1
  9
$PSVPSCALE
 40
0.0
  9
$OLESTARTUP
290
0
  9
$SORTENTS
280
127
  9
$INDEXCTL
280
0
  9
$HIDETEXT
280
1
  9
$XCLIPFRAME
280
0
  9
$HALOGAP
280
0
  9
$OBSCOLOR
 70
257
  9
$OBSLTYPE
280
0
  9
$INTERSECTIONDISPLAY
280
0
  9
$INTERSECTIONCOLOR
 70
257
  9
$DIMASSOC
280
2
  9
$PROJECTNAME
  1

  9
$CAMERADISPLAY
290
0
  9
$LENSLENGTH
 40
50.0
  9
$CAMERAHEIGHT
 40
0.0
  9
$STEPSPERSEC
 40
24.0
  9
$STEPSIZE
 40
100.0
  9
$3DDWFPREC
 40
2.0
  9
$PSOLWIDTH
 40
0.005
  9
$PSOLHEIGHT
 40
0.08
  9
$LOFTANG1
 40
1.570796326795
  9
$LOFTANG2
 40
1.570796326795
  9
$LOFTMAG1
 40
0.0
  9
$LOFTMAG2
 40
0.0
  9
$LOFTPARAM
 70
7
  9
$LOFTNORMALS
280
1
  9
$LATITUDE
 40
37.795
  9
$LONGITUDE
 40
-122.394
  9
$NORTHDIRECTION
 40
0.0
  9
$TIMEZONE
 70
-8000
  9
$LIGHTGLYPHDISPLAY
280
1
  9
$TILEMODELIGHTSYNCH
280
1
  9
$CMATERIAL
347
20
  9
$SOLIDHIST
280
0
  9
$SHOWHIST
280
1
  9
$DWFFRAME
280
2
  9
$DGNFRAME
280
2
  9
$REALWORLDSCALE
290
1
  9
$INTERFERECOLOR
 62
256
  9
$CSHADOW
280
0
  9
$SHADOWPLANELOCATION
 40
0.0
  0
ENDSEC
  0
SECTION
  2
CLASSES
  0
CLASS
  1
ACDBDICTIONARYWDFLT
  2
AcDbDictionaryWithDefault
  3
ObjectDBX Classes
 90
0
 91
0
280
0
281
0
  0
CLASS
  1
SUN
  2
AcDbSun
  3
SCENEOE
 90
1153
 91
0
280
0
281
0
  0
CLASS
  1
VISUALSTYLE
  2
AcDbVisualStyle
  3
ObjectDBX Classes
 90
4095
 91
0
280
0
281
0
  0
CLASS
  1
MATERIAL
  2
AcDbMaterial
  3
ObjectDBX Classes
 90
1153
 91
0
280
0
281
0
  0
CLASS
  1
SCALE
  2
AcDbScale
  3
ObjectDBX Classes
 90
1153
 91
0
280
0
281
0
  0
CLASS
  1
TABLESTYLE
  2
AcDbTableStyle
  3
ObjectDBX Classes
 90
4095
 91
0
280
0
281
0
  0
CLASS
  1
MLEADERSTYLE
  2
AcDbMLeaderStyle
  3
ACDB_MLEADERSTYLE_CLASS
 90
4095
 91
0
280
0
281
0
  0
CLASS
  1
DICTIONARYVAR
  2
AcDbDictionaryVar
  3
ObjectDBX Classes
 90
0
 91
0
280
0
281
0
  0
CLASS
  1
CELLSTYLEMAP
  2
AcDbCellStyleMap
  3
ObjectDBX Classes
 90
1152
 91
0
280
0
281
0
  0
CLASS
  1
MENTALRAYRENDERSETTINGS
  2
AcDbMentalRayRenderSettings
  3
SCENEOE
 90
1024
 91
0
280
0
281
0
  0
CLASS
  1
ACDBDETAILVIEWSTYLE
  2
AcDbDetailViewStyle
  3
ObjectDBX Classes
 90
1025
 91
0
280
0
281
0
  0
CLASS
  1
ACDBSECTIONVIEWSTYLE
  2
AcDbSectionViewStyle
  3
ObjectDBX Classes
 90
1025
 91
0
280
0
281
0
  0
CLASS
  1
RASTERVARIABLES
  2
AcDbRasterVariables
  3
ISM
 90
0
 91
0
280
0
281
0
  0
CLASS
  1
LAYOUT
  2
AcDbLayout
  3
ObjectDBX Classes
 90
0
 91
0
280
0
281
0
  0
CLASS
  1
ACDBPLACEHOLDER
  2
AcDbPlaceHolder
  3
ObjectDBX Classes
 90
0
 91
0
280
0
281
0
  0
ENDSEC
  0
SECTION
  2
TABLES
  0
TABLE
  2
VPORT
  5
8
330
0
100
AcDbSymbolTable
 70
1
  0
VPORT
  5
23
330
8
100
AcDbSymbolTableRecord
100
AcDbViewportTableRecord
  2
*Active
 70
0
 10
0.0
 20
0.0
 11
1.0
 21
1.0
 12
0.0
 22
0.0
 13
0.0
 23
0.0
 14
0.5
 24
0.5
 15
0.5
 25
0.5
 16
0.0
 26
0.0
 36
1.0
 17
0.0
 27
0.0
 37
0.0
 40
1000.0
 41
1.34
 42
50.0
 43
0.0
 44
0.0
 50
0.0
 51
0.0
 71
0
 72
1000
 73
1
 74
3
 75
0
 76
0
 77
0
 78
0
281
0
 65
0
146
0.0
  0
ENDTAB
  0
TABLE
  2
LTYPE
  5
2
330
0
100
AcDbSymbolTable
 70
3
  0
LTYPE
  5
24
330
2
100
AcDbSymbolTableRecord
100
AcDbLinetypeTableRecord
  2
ByBlock
 70
0
  3

 72
65
 73
0
 40
0.0
  0
LTYPE
  5
25
330
2
100
AcDbSymbolTableRecord
100
AcDbLinetypeTableRecord
  2
ByLayer
 70
0
  3

 72
65
 73
0
 40
0.0
  0
LTYPE
  5
26
330
2
100
AcDbSymbolTableRecord
100
AcDbLinetypeTableRecord
  2
Continuous
 70
0
  3

 72
65
 73
0
 40
0.0
  0
ENDTAB
  0
TABLE
  2
LAYER
  5
1
330
0
100
AcDbSymbolTable
 70
3
  0
LAYER
  5
27
330
1
100
AcDbSymbolTableRecord
100
AcDbLayerTableRecord
  2
0
 70
0
 62
7
  6
Continuous
370
-3
390
13
347
21
  0
LAYER
  5
28
330
1
100
AcDbSymbolTableRecord
100
AcDbLayerTableRecord
  2
Defpoints
 70
0
 62
7
  6
Continuous
290
0
370
-3
390
13
347
21
  0
LAYER
  5
2F
330
1
100
AcDbSymbolTableRecord
100
AcDbLayerTableRecord
  2
SURVEY_NUMBERS
 70
0
 62
2
  6
Continuous
370
-3
390
13
347
21
  0
ENDTAB
  0
TABLE
  2
STYLE
  5
5
330
0
100
AcDbSymbolTable
 70
1
  0
STYLE
  5
29
330
5
100
AcDbSymbolTableRecord
100
AcDbTextStyleTableRecord
  2
Standard
 70
0
 40
0.0
 41
1.0
 50
0.0
 71
0
 42
2.5
  3
txt
  4

  0
ENDTAB
  0
TABLE
  2
VIEW
  5
7
330
0
100
AcDbSymbolTable
 70
0
  0
ENDTAB
  0
TABLE
  2
UCS
  5
6
330
0
100
AcDbSymbolTable
 70
0
  0
ENDTAB
  0
TABLE
  2
APPID
  5
3
330
0
100
AcDbSymbolTable
 70
3
  0
APPID
  5
2A
330
3
100
AcDbSymbolTableRecord
100
AcDbRegAppTableRecord
  2
ACAD
 70
0
  0
APPID
  5
B5
330
3
100
AcDbSymbolTableRecord
100
AcDbRegAppTableRecord
  2
HATCHBACKGROUNDCOLOR
 70
0
  0
APPID
  5
B6
330
3
100
AcDbSymbolTableRecord
100
AcDbRegAppTableRecord
  2
EZDXF
 70
0
  0
ENDTAB
  0
TABLE
  2
DIMSTYLE
  5
4
330
0
100
AcDbSymbolTable
 70
1
100
AcDbDimStyleTable
  0
DIMSTYLE
105
2B
330
4
100
AcDbSymbolTableRecord
100
AcDbDimStyleTableRecord
  2
Standard
 70
0
 40
1.0
 41
2.5
 42
0.625
 43
3.75
 44
1.25
 45
0.0
 46
0.0
 47
0.0
 48
0.0
 49
2.5
140
2.5
141
2.5
142
0.0
143
0.03937007874
144
1.0
145
0.0
146
1.0
147
0.625
148
0.0
 69
0
 70
0
 71
0
 72
0
 73
0
 74
0
 75
0
 76
0
 77
1
 78
8
 79
3
170
0
171
3
172
1
173
0
174
0
175
0
176
0
177
0
178
0
179
2
271
2
272
2
273
2
274
3
275
0
276
0
277
2
278
44
279
0
280
0
281
0
282
0
283
0
284
8
285
0
286
0
288
0
289
3
290
0
371
-2
372
-2
  0
ENDTAB
  0
TABLE
  2
BLOCK_RECORD
  5
9
330
0
100
AcDbSymbolTable
 70
2
  0
BLOCK_RECORD
  5
17
330
9
100
AcDbSymbolTableRecord
100
AcDbBlockTableRecord
  2
*Model_Space
340
1A
 70
0
280
1
281
0
  0
BLOCK_RECORD
  5
1B
330
9
100
AcDbSymbolTableRecord
100
AcDbBlockTableRecord
  2
*Paper_Space
340
1E
 70
0
280
1
281
0
  0
ENDTAB
  0
ENDSEC
  0
SECTION
  2
BLOCKS
  0
BLOCK
  5
18
330
17
100
AcDbEntity
  8
0
100
AcDbBlockBegin
  2
*Model_Space
 70
0
 10
0.0
 20
0.0
 30
0.0
  3
*Model_Space
  1

  0
ENDBLK
  5
19
330
17
100
AcDbEntity
  8
0
100
AcDbBlockEnd
  0
BLOCK
  5
1C
330
1B
100
AcDbEntity
  8
0
100
AcDbBlockBegin
  2
*Paper_Space
 70
0
 10
0.0
 20
0.0
 30
0.0
  3
*Paper_Space
  1

  0
ENDBLK
  5
1D
330
1B
100
AcDbEntity
  8
0
100
AcDbBlockEnd
  0
ENDSEC
  0
SECTION
  2
ENTITIES
  0
TEXT
  5
30
330
17
100
AcDbEntity
  8
SURVEY_NUMBERS
100
AcDbText
 10
6073.0
 20
9356.5
 30
0.0
 40
40.0
  1
115/2
 72
1
 11
6073.0
 21
9356.5
 31
0.0
100
AcDbText
 73
2
  0
TEXT
  5
31
330
17
100
AcDbEntity
  8
SURVEY_NUMBERS
100
AcDbText
 10
6030.5
 20
9463.0
 30
0.0
 40
40.0
  1
115/1
 72
1
 11
6030.5
 21
9463.0
 31
0.0
100
AcDbText
 73
2
  0
TEXT
  5
32
330
17
100
AcDbEntity
  8
SURVEY_NUMBERS
100
AcDbText
 10
1694.5
 20
7940.5
 30
0.0
 40
40.0
  1
17/1
 72
1
 11
1694.5
 21
7940.5
 31
0.0
100
AcDbText
 73
2
  0
TEXT
  5
33
330
17
100
AcDbEntity
  8
SURVEY_NUMBERS
100
AcDbText
 10
1596.0
 20
8070.5
 30
0.0
 40
40.0
  1
17/2
 72
1
 11
1596.0
 21
8070.5
 31
0.0
100
AcDbText
 73
2
  0
TEXT
  5
34
330
17
100
AcDbEntity
  8
SURVEY_NUMBERS
100
AcDbText
 10
4009.0
 20
4799.5
 30
0.0
 40
40.0
  1
66/1
 72
1
 11
4009.0
 21
4799.5
 31
0.0
100
AcDbText
 73
2
  0
TEXT
  5
35
330
17
100
AcDbEntity
  8
SURVEY_NUMBERS
100
AcDbText
 10
3873.5
 20
4475.0
 30
0.0
 40
40.0
  1
66/2
 72
1
 11
3873.5
 21
4475.0
 31
0.0
100
AcDbText
 73
2
  0
TEXT
  5
36
330
17
100
AcDbEntity
  8
SURVEY_NUMBERS
100
AcDbText
 10
1956.0
 20
7815.5
 30
0.0
 40
40.0
  1
17/3
 72
1
 11
1956.0
 21
7815.5
 31
0.0
100
AcDbText
 73
2
  0
TEXT
  5
37
330
17
100
AcDbEntity
  8
SURVEY_NUMBERS
100
AcDbText
 10
3203.0
 20
6123.0
 30
0.0
 40
40.0
  1
33/1
 72
1
 11
3203.0
 21
6123.0
 31
0.0
100
AcDbText
 73
2
  0
TEXT
  5
38
330
17
100
AcDbEntity
  8
SURVEY_NUMBERS
100
AcDbText
 10
3066.5
 20
6287.5
 30
0.0
 40
40.0
  1
33/2
 72
1
 11
3066.5
 21
6287.5
 31
0.0
100
AcDbText
 73
2
  0
TEXT
  5
39
330
17
100
AcDbEntity
  8
SURVEY_NUMBERS
100
AcDbText
 10
2135.5
 20
8116.0
 30
0.0
 40
40.0
  1
12/1
 72
1
 11
2135.5
 21
8116.0
 31
0.0
100
AcDbText
 73
2
  0
TEXT
  5
3A
330
17
100
AcDbEntity
  8
SURVEY_NUMBERS
100
AcDbText
 10
2090.0
 20
7830.0
 30
0.0
 40
40.0
  1
12/2
 72
1
 11
2090.0
 21
7830.0
 31
0.0
100
AcDbText
 73
2
  0
TEXT
  5
3B
330
17
100
AcDbEntity
  8
SURVEY_NUMBERS
100
AcDbText
 10
5899.0
 20
8259.0
 30
0.0
 40
40.0
  1
127
 72
1
 11
5899.0
 21
8259.0
 31
0.0
100
AcDbText
 73
2
  0
TEXT
  5
3C
330
17
100
AcDbEntity
  8
SURVEY_NUMBERS
100
AcDbText
 10
5872.0
 20
8447.0
 30
0.0
 40
40.0
  1
122
 72
1
 11
5872.0
 21
8447.0
 31
0.0
100
AcDbText
 73
2
  0
TEXT
  5
3D
330
17
100
AcDbEntity
  8
SURVEY_NUMBERS
100
AcDbText
 10
8130.0
 20
9602.0
 30
0.0
 40
40.0
  1
105
 72
1
 11
8130.0
 21
9602.0
 31
0.0
100
AcDbText
 73
2
  0
TEXT
  5
3E
330
17
100
AcDbEntity
  8
SURVEY_NUMBERS
100
AcDbText
 10
6056.0
 20
9153.0
 30
0.0
 40
40.0
  1
117
 72
1
 11
6056.0
 21
9153.0
 31
0.0
100
AcDbText
 73
2
  0
TEXT
  5
3F
330
17
100
AcDbEntity
  8
SURVEY_NUMBERS
100
AcDbText
 10
5662.0
 20
7831.5
 30
0.0
 40
40.0
  1
129
 72
1
 11
5662.0
 21
7831.5
 31
0.0
100
AcDbText
 73
2
  0
TEXT
  5
40
330
17
100
AcDbEntity
  8
SURVEY_NUMBERS
100
AcDbText
 10
5414.5
 20
9688.0
 30
0.0
 40
40.0
  1
110
 72
1
 11
5414.5
 21
9688.0
 31
0.0
100
AcDbText
 73
2
  0
TEXT
  5
41
330
17
100
AcDbEntity
  8
SURVEY_NUMBERS
100
AcDbText
 10
5919.0
 20
8900.0
 30
0.0
 40
40.0
  1
118
 72
1
 11
5919.0
 21
8900.0
 31
0.0
100
AcDbText
 73
2
  0
TEXT
  5
42
330
17
100
AcDbEntity
  8
SURVEY_NUMBERS
100
AcDbText
 10
6872.5
 20
9851.0
 30
0.0
 40
40.0
  1
107
 72
1
 11
6872.5
 21
9851.0
 31
0.0
100
AcDbText
 73
2
  0
TEXT
  5
43
330
17
100
AcDbEntity
  8
SURVEY_NUMBERS
100
AcDbText
 10
9875.5
 20
8944.0
 30
0.0
 40
40.0
  1
102
 72
1
 11
9875.5
 21
8944.0
 31
0.0
100
AcDbText
 73
2
  0
TEXT
  5
44
330
17
100
AcDbEntity
  8
SURVEY_NUMBERS
100
AcDbText
 10
5437.5
 20
8072.0
 30
0.0
 40
40.0
  1
125
 72
1
 11
5437.5
 21
8072.0
 31
0.0
100
AcDbText
 73
2
  0
TEXT
  5
45
330
17
100
AcDbEntity
  8
SURVEY_NUMBERS
100
AcDbText
 10
5544.0
 20
8683.0
 30
0.0
 40
40.0
  1
120
 72
1
 11
5544.0
 21
8683.0
 31
0.0
100
AcDbText
 73
2
  0
TEXT
  5
46
330
17
100
AcDbEntity
  8
SURVEY_NUMBERS
100
AcDbText
 10
6060.5
 20
9629.0
 30
0.0
 40
40.0
  1
114
 72
1
 11
6060.5
 21
9629.0
 31
0.0
100
AcDbText
 73
2
  0
TEXT
  5
47
330
17
100
AcDbEntity
  8
SURVEY_NUMBERS
100
AcDbText
 10
10668.5
 20
9002.0
 30
0.0
 40
40.0
  1
101
 72
1
 11
10668.5
 21
9002.0
 31
0.0
100
AcDbText
 73
2
  0
TEXT
  5
48
330
17
100
AcDbEntity
  8
SURVEY_NUMBERS
100
AcDbText
 10
5171.0
 20
8114.5
 30
0.0
 40
40.0
  1
124
 72
1
 11
5171.0
 21
8114.5
 31
0.0
100
AcDbText
 73
2
  0
TEXT
  5
49
330
17
100
AcDbEntity
  8
SURVEY_NUMBERS
100
AcDbText
 10
5753.0
 20
9178.0
 30
0.0
 40
40.0
  1
116
 72
1
 11
5753.0
 21
9178.0
 31
0.0
100
AcDbText
 73
2
  0
TEXT
  5
4A
330
17
100
AcDbEntity
  8
SURVEY_NUMBERS
100
AcDbText
 10
6634.0
 20
9442.5
 30
0.0
 40
40.0
  1
106
 72
1
 11
6634.0
 21
9442.5
 31
0.0
100
AcDbText
 73
2
  0
TEXT
  5
4B
330
17
100
AcDbEntity
  8
SURVEY_NUMBERS
100
AcDbText
 10
5627.5
 20
8937.5
 30
0.0
 40
40.0
  1
119
 72
1
 11
5627.5
 21
8937.5
 31
0.0
100
AcDbText
 73
2
  0
TEXT
  5
4C
330
17
100
AcDbEntity
  8
SURVEY_NUMBERS
100
AcDbText
 10
5752.5
 20
8060.0
 30
0.0
 40
40.0
  1
128
 72
1
 11
5752.5
 21
8060.0
 31
0.0
100
AcDbText
 73
2
  0
TEXT
  5
4D
330
17
100
AcDbEntity
  8
SURVEY_NUMBERS
100
AcDbText
 10
8822.0
 20
9414.5
 30
0.0
 40
40.0
  1
104
 72
1
 11
8822.0
 21
9414.5
 31
0.0
100
AcDbText
 73
2
  0
TEXT
  5
4E
330
17
100
AcDbEntity
  8
SURVEY_NUMBERS
100
AcDbText
 10
5930.0
 20
10186.5
 30
0.0
 40
40.0
  1
109
 72
1
 11
5930.0
 21
10186.5
 31
0.0
100
AcDbText
 73
2
  0
TEXT
  5
4F
330
17
100
AcDbEntity
  8
SURVEY_NUMBERS
100
AcDbText
 10
5487.0
 20
8446.5
 30
0.0
 40
40.0
  1
123
 72
1
 11
5487.0
 21
8446.5
 31
0.0
100
AcDbText
 73
2
  0
TEXT
  5
50
330
17
100
AcDbEntity
  8
SURVEY_NUMBERS
100
AcDbText
 10
5683.5
 20
8262.0
 30
0.0
 40
40.0
  1
126
 72
1
 11
5683.5
 21
8262.0
 31
0.0
100
AcDbText
 73
2
  0
TEXT
  5
51
330
17
100
AcDbEntity
  8
SURVEY_NUMBERS
100
AcDbText
 10
2970.5
 20
7267.0
 30
0.0
 40
40.0
  1
7/1
 72
1
 11
2970.5
 21
7267.0
 31
0.0
100
AcDbText
 73
2
  0
TEXT
  5
52
330
17
100
AcDbEntity
  8
SURVEY_NUMBERS
100
AcDbText
 10
5886.5
 20
8653.5
 30
0.0
 40
40.0
  1
121
 72
1
 11
5886.5
 21
8653.5
 31
0.0
100
AcDbText
 73
2
  0
TEXT
  5
53
330
17
100
AcDbEntity
  8
SURVEY_NUMBERS
100
AcDbText
 10
8516.0
 20
8890.5
 30
0.0
 40
40.0
  1
103
 72
1
 11
8516.0
 21
8890.5
 31
0.0
100
AcDbText
 73
2
  0
TEXT
  5
54
330
17
100
AcDbEntity
  8
SURVEY_NUMBERS
100
AcDbText
 10
5713.5
 20
9683.0
 30
0.0
 40
40.0
  1
112
 72
1
 11
5713.5
 21
9683.0
 31
0.0
100
AcDbText
 73
2
  0
TEXT
  5
55
330
17
100
AcDbEntity
  8
SURVEY_NUMBERS
100
AcDbText
 10
6992.5
 20
10172.0
 30
0.0
 40
40.0
  1
108
 72
1
 11
6992.5
 21
10172.0
 31
0.0
100
AcDbText
 73
2
  0
TEXT
  5
56
330
17
100
AcDbEntity
  8
SURVEY_NUMBERS
100
AcDbText
 10
8709.0
 20
8210.5
 30
0.0
 40
40.0
  1
134
 72
1
 11
8709.0
 21
8210.5
 31
0.0
100
AcDbText
 73
2
  0
TEXT
  5
57
330
17
100
AcDbEntity
  8
SURVEY_NUMBERS
100
AcDbText
 10
5008.5
 20
6728.5
 30
0.0
 40
40.0
  1
131
 72
1
 11
5008.5
 21
6728.5
 31
0.0
100
AcDbText
 73
2
  0
TEXT
  5
58
330
17
100
AcDbEntity
  8
SURVEY_NUMBERS
100
AcDbText
 10
5179.0
 20
6598.0
 30
0.0
 40
40.0
  1
130
 72
1
 11
5179.0
 21
6598.0
 31
0.0
100
AcDbText
 73
2
  0
TEXT
  5
59
330
17
100
AcDbEntity
  8
SURVEY_NUMBERS
100
AcDbText
 10
5097.5
 20
6672.5
 30
0.0
 40
40.0
  1
132
 72
1
 11
5097.5
 21
6672.5
 31
0.0
100
AcDbText
 73
2
  0
TEXT
  5
5A
330
17
100
AcDbEntity
  8
SURVEY_NUMBERS
100
AcDbText
 10
6096.5
 20
9838.5
 30
0.0
 40
40.0
  1
113
 72
1
 11
6096.5
 21
9838.5
 31
0.0
100
AcDbText
 73
2
  0
TEXT
  5
5B
330
17
100
AcDbEntity
  8
SURVEY_NUMBERS
100
AcDbText
 10
11108.0
 20
9065.5
 30
0.0
 40
40.0
  1
100
 72
1
 11
11108.0
 21
9065.5
 31
0.0
100
AcDbText
 73
2
  0
TEXT
  5
5C
330
17
100
AcDbEntity
  8
SURVEY_NUMBERS
100
AcDbText
 10
5597.5
 20
9611.5
 30
0.0
 40
40.0
  1
111
 72
1
 11
5597.5
 21
9611.5
 31
0.0
100
AcDbText
 73
2
  0
TEXT
  5
5D
330
17
100
AcDbEntity
  8
SURVEY_NUMBERS
100
AcDbText
 10
5220.5
 20
6677.0
 30
0.0
 40
40.0
  1
133
 72
1
 11
5220.5
 21
6677.0
 31
0.0
100
AcDbText
 73
2
  0
TEXT
  5
5E
330
17
100
AcDbEntity
  8
SURVEY_NUMBERS
100
AcDbText
 10
2768.5
 20
7035.5
 30
0.0
 40
40.0
  1
7/2
 72
1
 11
2768.5
 21
7035.5
 31
0.0
100
AcDbText
 73
2
  0
TEXT
  5
5F
330
17
100
AcDbEntity
  8
SURVEY_NUMBERS
100
AcDbText
 10
11579.0
 20
9224.0
 30
0.0
 40
40.0
  1
99
 72
1
 11
11579.0
 21
9224.0
 31
0.0
100
AcDbText
 73
2
  0
TEXT
  5
60
330
17
100
AcDbEntity
  8
SURVEY_NUMBERS
100
AcDbText
 10
8651.5
 20
5592.5
 30
0.0
 40
40.0
  1
95
 72
1
 11
8651.5
 21
5592.5
 31
0.0
100
AcDbText
 73
2
  0
TEXT
  5
61
330
17
100
AcDbEntity
  8
SURVEY_NUMBERS
100
AcDbText
 10
1348.5
 20
5645.5
 30
0.0
 40
40.0
  1
29
 72
1
 11
1348.5
 21
5645.5
 31
0.0
100
AcDbText
 73
2
  0
TEXT
  5
62
330
17
100
AcDbEntity
  8
SURVEY_NUMBERS
100
AcDbText
 10
1271.0
 20
6793.0
 30
0.0
 40
40.0
  1
25
 72
1
 11
1271.0
 21
6793.0
 31
0.0
100
AcDbText
 73
2
  0
TEXT
  5
63
330
17
100
AcDbEntity
  8
SURVEY_NUMBERS
100
AcDbText
 10
4121.0
 20
4274.0
 30
0.0
 40
40.0
  1
62
 72
1
 11
4121.0
 21
4274.0
 31
0.0
100
AcDbText
 73
2
  0
TEXT
  5
64
330
17
100
AcDbEntity
  8
SURVEY_NUMBERS
100
AcDbText
 10
5023.0
 20
4401.0
 30
0.0
 40
40.0
  1
67
 72
1
 11
5023.0
 21
4401.0
 31
0.0
100
AcDbText
 73
2
  0
TEXT
  5
65
330
17
100
AcDbEntity
  8
SURVEY_NUMBERS
100
AcDbText
 10
1073.0
 20
5964.5
 30
0.0
 40
40.0
  1
27
 72
1
 11
1073.0
 21
5964.5
 31
0.0
100
AcDbText
 73
2
  0
TEXT
  5
66
330
17
100
AcDbEntity
  8
SURVEY_NUMBERS
100
AcDbText
 10
9566.5
 20
5884.5
 30
0.0
 40
40.0
  1
96
 72
1
 11
9566.5
 21
5884.5
 31
0.0
100
AcDbText
 73
2
  0
TEXT
  5
67
330
17
100
AcDbEntity
  8
SURVEY_NUMBERS
100
AcDbText
 10
842.5
 20
7018.5
 30
0.0
 40
40.0
  1
22
 72
1
 11
842.5
 21
7018.5
 31
0.0
100
AcDbText
 73
2
  0
TEXT
  5
68
330
17
100
AcDbEntity
  8
SURVEY_NUMBERS
100
AcDbText
 10
12038.5
 20
9540.0
 30
0.0
 40
40.0
  1
98
 72
1
 11
12038.5
 21
9540.0
 31
0.0
100
AcDbText
 73
2
  0
TEXT
  5
69
330
17
100
AcDbEntity
  8
SURVEY_NUMBERS
100
AcDbText
 10
6062.5
 20
5921.5
 30
0.0
 40
40.0
  1
77
 72
1
 11
6062.5
 21
5921.5
 31
0.0
100
AcDbText
 73
2
  0
TEXT
  5
6A
330
17
100
AcDbEntity
  8
SURVEY_NUMBERS
100
AcDbText
 10
3083.0
 20
4699.0
 30
0.0
 40
40.0
  1
65
 72
1
 11
3083.0
 21
4699.0
 31
0.0
100
AcDbText
 73
2
  0
TEXT
  5
6B
330
17
100
AcDbEntity
  8
SURVEY_NUMBERS
100
AcDbText
 10
4449.5
 20
5229.5
 30
0.0
 40
40.0
  1
72
 72
1
 11
4449.5
 21
5229.5
 31
0.0
100
AcDbText
 73
2
  0
TEXT
  5
6C
330
17
100
AcDbEntity
  8
SURVEY_NUMBERS
100
AcDbText
 10
2701.0
 20
4001.5
 30
0.0
 40
40.0
  1
64
 72
1
 11
2701.0
 21
4001.5
 31
0.0
100
AcDbText
 73
2
  0
TEXT
  5
6D
330
17
100
AcDbEntity
  8
SURVEY_NUMBERS
100
AcDbText
 10
1923.5
 20
3148.5
 30
0.0
 40
40.0
  1
49
 72
1
 11
1923.5
 21
3148.5
 31
0.0
100
AcDbText
 73
2
  0
TEXT
  5
6E
330
17
100
AcDbEntity
  8
SURVEY_NUMBERS
100
AcDbText
 10
8091.5
 20
6235.0
 30
0.0
 40
40.0
  1
87
 72
1
 11
8091.5
 21
6235.0
 31
0.0
100
AcDbText
 73
2
  0
TEXT
  5
6F
330
17
100
AcDbEntity
  8
SURVEY_NUMBERS
100
AcDbText
 10
7523.5
 20
5749.0
 30
0.0
 40
40.0
  1
90
 72
1
 11
7523.5
 21
5749.0
 31
0.0
100
AcDbText
 73
2
  0
TEXT
  5
70
330
17
100
AcDbEntity
  8
SURVEY_NUMBERS
100
AcDbText
 10
2178.0
 20
3121.0
 30
0.0
 40
40.0
  1
48
 72
1
 11
2178.0
 21
3121.0
 31
0.0
100
AcDbText
 73
2
  0
TEXT
  5
71
330
17
100
AcDbEntity
  8
SURVEY_NUMBERS
100
AcDbText
 10
2429.5
 20
3033.5
 30
0.0
 40
40.0
  1
47
 72
1
 11
2429.5
 21
3033.5
 31
0.0
100
AcDbText
 73
2
  0
TEXT
  5
72
330
17
100
AcDbEntity
  8
SURVEY_NUMBERS
100
AcDbText
 10
9502.5
 20
7265.5
 30
0.0
 40
40.0
  1
82
 72
1
 11
9502.5
 21
7265.5
 31
0.0
100
AcDbText
 73
2
  0
TEXT
  5
73
330
17
100
AcDbEntity
  8
SURVEY_NUMBERS
100
AcDbText
 10
9920.5
 20
6520.0
 30
0.0
 40
40.0
  1
97
 72
1
 11
9920.5
 21
6520.0
 31
0.0
100
AcDbText
 73
2
  0
TEXT
  5
74
330
17
100
AcDbEntity
  8
SURVEY_NUMBERS
100
AcDbText
 10
8290.5
 20
5202.0
 30
0.0
 40
40.0
  1
94
 72
1
 11
8290.5
 21
5202.0
 31
0.0
100
AcDbText
 73
2
  0
TEXT
  5
75
330
17
100
AcDbEntity
  8
SURVEY_NUMBERS
100
AcDbText
 10
7405.5
 20
4700.5
 30
0.0
 40
40.0
  1
69
 72
1
 11
7405.5
 21
4700.5
 31
0.0
100
AcDbText
 73
2
  0
TEXT
  5
76
330
17
100
AcDbEntity
  8
SURVEY_NUMBERS
100
AcDbText
 10
8597.5
 20
6195.0
 30
0.0
 40
40.0
  1
85
 72
1
 11
8597.5
 21
6195.0
 31
0.0
100
AcDbText
 73
2
  0
TEXT
  5
77
330
17
100
AcDbEntity
  8
SURVEY_NUMBERS
100
AcDbText
 10
2809.5
 20
2828.0
 30
0.0
 40
40.0
  1
57
 72
1
 11
2809.5
 21
2828.0
 31
0.0
100
AcDbText
 73
2
  0
TEXT
  5
78
330
17
100
AcDbEntity
  8
SURVEY_NUMBERS
100
AcDbText
 10
4442.5
 20
3681.5
 30
0.0
 40
40.0
  1
60
 72
1
 11
4442.5
 21
3681.5
 31
0.0
100
AcDbText
 73
2
  0
TEXT
  5
79
330
17
100
AcDbEntity
  8
SURVEY_NUMBERS
100
AcDbText
 10
8224.0
 20
7103.5
 30
0.0
 40
40.0
  1
84
 72
1
 11
8224.0
 21
7103.5
 31
0.0
100
AcDbText
 73
2
  0
TEXT
  5
7A
330
17
100
AcDbEntity
  8
SURVEY_NUMBERS
100
AcDbText
 10
3173.5
 20
3877.0
 30
0.0
 40
40.0
  1
63
 72
1
 11
3173.5
 21
3877.0
 31
0.0
100
AcDbText
 73
2
  0
TEXT
  5
7B
330
17
100
AcDbEntity
  8
SURVEY_NUMBERS
100
AcDbText
 10
8063.0
 20
5786.5
 30
0.0
 40
40.0
  1
86
 72
1
 11
8063.0
 21
5786.5
 31
0.0
100
AcDbText
 73
2
  0
TEXT
  5
7C
330
17
100
AcDbEntity
  8
SURVEY_NUMBERS
100
AcDbText
 10
1988.5
 20
1903.5
 30
0.0
 40
40.0
  1
52
 72
1
 11
1988.5
 21
1903.5
 31
0.0
100
AcDbText
 73
2
  0
TEXT
  5
7D
330
17
100
AcDbEntity
  8
SURVEY_NUMBERS
100
AcDbText
 10
2133.5
 20
1137.0
 30
0.0
 40
40.0
  1
54
 72
1
 11
2133.5
 21
1137.0
 31
0.0
100
AcDbText
 73
2
  0
TEXT
  5
7E
330
17
100
AcDbEntity
  8
SURVEY_NUMBERS
100
AcDbText
 10
7370.0
 20
5302.0
 30
0.0
 40
40.0
  1
92
 72
1
 11
7370.0
 21
5302.0
 31
0.0
100
AcDbText
 73
2
  0
TEXT
  5
7F
330
17
100
AcDbEntity
  8
SURVEY_NUMBERS
100
AcDbText
 10
7360.5
 20
5642.5
 30
0.0
 40
40.0
  1
91
 72
1
 11
7360.5
 21
5642.5
 31
0.0
100
AcDbText
 73
2
  0
TEXT
  5
80
330
17
100
AcDbEntity
  8
SURVEY_NUMBERS
100
AcDbText
 10
5527.5
 20
4687.5
 30
0.0
 40
40.0
  1
68
 72
1
 11
5527.5
 21
4687.5
 31
0.0
100
AcDbText
 73
2
  0
TEXT
  5
81
330
17
100
AcDbEntity
  8
SURVEY_NUMBERS
100
AcDbText
 10
1657.5
 20
3149.5
 30
0.0
 40
40.0
  1
50
 72
1
 11
1657.5
 21
3149.5
 31
0.0
100
AcDbText
 73
2
  0
TEXT
  5
82
330
17
100
AcDbEntity
  8
SURVEY_NUMBERS
100
AcDbText
 10
3218.0
 20
5832.0
 30
0.0
 40
40.0
  1
34
 72
1
 11
3218.0
 21
5832.0
 31
0.0
100
AcDbText
 73
2
  0
TEXT
  5
83
330
17
100
AcDbEntity
  8
SURVEY_NUMBERS
100
AcDbText
 10
8984.5
 20
6648.0
 30
0.0
 40
40.0
  1
83
 72
1
 11
8984.5
 21
6648.0
 31
0.0
100
AcDbText
 73
2
  0
TEXT
  5
84
330
17
100
AcDbEntity
  8
SURVEY_NUMBERS
100
AcDbText
 10
2030.5
 20
7369.0
 30
0.0
 40
40.0
  1
23
 72
1
 11
2030.5
 21
7369.0
 31
0.0
100
AcDbText
 73
2
  0
TEXT
  5
85
330
17
100
AcDbEntity
  8
SURVEY_NUMBERS
100
AcDbText
 10
1180.5
 20
7766.5
 30
0.0
 40
40.0
  1
20
 72
1
 11
1180.5
 21
7766.5
 31
0.0
100
AcDbText
 73
2
  0
TEXT
  5
86
330
17
100
AcDbEntity
  8
SURVEY_NUMBERS
100
AcDbText
 10
1816.0
 20
6852.0
 30
0.0
 40
40.0
  1
24
 72
1
 11
1816.0
 21
6852.0
 31
0.0
100
AcDbText
 73
2
  0
TEXT
  5
87
330
17
100
AcDbEntity
  8
SURVEY_NUMBERS
100
AcDbText
 10
4667.0
 20
5826.0
 30
0.0
 40
40.0
  1
75
 72
1
 11
4667.0
 21
5826.0
 31
0.0
100
AcDbText
 73
2
  0
TEXT
  5
88
330
17
100
AcDbEntity
  8
SURVEY_NUMBERS
100
AcDbText
 10
1711.0
 20
8317.5
 30
0.0
 40
40.0
  1
16
 72
1
 11
1711.0
 21
8317.5
 31
0.0
100
AcDbText
 73
2
  0
TEXT
  5
89
330
17
100
AcDbEntity
  8
SURVEY_NUMBERS
100
AcDbText
 10
1938.0
 20
3883.0
 30
0.0
 40
40.0
  1
46
 72
1
 11
1938.0
 21
3883.0
 31
0.0
100
AcDbText
 73
2
  0
TEXT
  5
8A
330
17
100
AcDbEntity
  8
SURVEY_NUMBERS
100
AcDbText
 10
1154.5
 20
8565.0
 30
0.0
 40
40.0
  1
15
 72
1
 11
1154.5
 21
8565.0
 31
0.0
100
AcDbText
 73
2
  0
TEXT
  5
8B
330
17
100
AcDbEntity
  8
SURVEY_NUMBERS
100
AcDbText
 10
3044.0
 20
2075.0
 30
0.0
 40
40.0
  1
56
 72
1
 11
3044.0
 21
2075.0
 31
0.0
100
AcDbText
 73
2
  0
TEXT
  5
8C
330
17
100
AcDbEntity
  8
SURVEY_NUMBERS
100
AcDbText
 10
1723.5
 20
5075.0
 30
0.0
 40
40.0
  1
41
 72
1
 11
1723.5
 21
5075.0
 31
0.0
100
AcDbText
 73
2
  0
TEXT
  5
8D
330
17
100
AcDbEntity
  8
SURVEY_NUMBERS
100
AcDbText
 10
3112.5
 20
3261.0
 30
0.0
 40
40.0
  1
58
 72
1
 11
3112.5
 21
3261.0
 31
0.0
100
AcDbText
 73
2
  0
TEXT
  5
8E
330
17
100
AcDbEntity
  8
SURVEY_NUMBERS
100
AcDbText
 10
2864.0
 20
6076.0
 30
0.0
 40
40.0
  1
32
 72
1
 11
2864.0
 21
6076.0
 31
0.0
100
AcDbText
 73
2
  0
TEXT
  5
8F
330
17
100
AcDbEntity
  8
SURVEY_NUMBERS
100
AcDbText
 10
2711.0
 20
5805.0
 30
0.0
 40
40.0
  1
38
 72
1
 11
2711.0
 21
5805.0
 31
0.0
100
AcDbText
 73
2
  0
TEXT
  5
90
330
17
100
AcDbEntity
  8
SURVEY_NUMBERS
100
AcDbText
 10
6495.5
 20
5128.5
 30
0.0
 40
40.0
  1
70
 72
1
 11
6495.5
 21
5128.5
 31
0.0
100
AcDbText
 73
2
  0
TEXT
  5
91
330
17
100
AcDbEntity
  8
SURVEY_NUMBERS
100
AcDbText
 10
1754.5
 20
1905.0
 30
0.0
 40
40.0
  1
51
 72
1
 11
1754.5
 21
1905.0
 31
0.0
100
AcDbText
 73
2
  0
TEXT
  5
92
330
17
100
AcDbEntity
  8
SURVEY_NUMBERS
100
AcDbText
 10
3372.0
 20
5587.0
 30
0.0
 40
40.0
  1
36
 72
1
 11
3372.0
 21
5587.0
 31
0.0
100
AcDbText
 73
2
  0
TEXT
  5
93
330
17
100
AcDbEntity
  8
SURVEY_NUMBERS
100
AcDbText
 10
2977.0
 20
5265.0
 30
0.0
 40
40.0
  1
37
 72
1
 11
2977.0
 21
5265.0
 31
0.0
100
AcDbText
 73
2
  0
TEXT
  5
94
330
17
100
AcDbEntity
  8
SURVEY_NUMBERS
100
AcDbText
 10
1635.5
 20
6165.0
 30
0.0
 40
40.0
  1
28
 72
1
 11
1635.5
 21
6165.0
 31
0.0
100
AcDbText
 73
2
  0
TEXT
  5
95
330
17
100
AcDbEntity
  8
SURVEY_NUMBERS
100
AcDbText
 10
2254.0
 20
1832.5
 30
0.0
 40
40.0
  1
53
 72
1
 11
2254.0
 21
1832.5
 31
0.0
100
AcDbText
 73
2
  0
TEXT
  5
96
330
17
100
AcDbEntity
  8
SURVEY_NUMBERS
100
AcDbText
 10
5042.0
 20
3870.5
 30
0.0
 40
40.0
  1
61
 72
1
 11
5042.0
 21
3870.5
 31
0.0
100
AcDbText
 73
2
  0
TEXT
  5
97
330
17
100
AcDbEntity
  8
SURVEY_NUMBERS
100
AcDbText
 10
1828.0
 20
9015.0
 30
0.0
 40
40.0
  1
14
 72
1
 11
1828.0
 21
9015.0
 31
0.0
100
AcDbText
 73
2
  0
TEXT
  5
98
330
17
100
AcDbEntity
  8
SURVEY_NUMBERS
100
AcDbText
 10
8865.0
 20
7707.5
 30
0.0
 40
40.0
  1
81
 72
1
 11
8865.0
 21
7707.5
 31
0.0
100
AcDbText
 73
2
  0
TEXT
  5
99
330
17
100
AcDbEntity
  8
SURVEY_NUMBERS
100
AcDbText
 10
2547.5
 20
8354.5
 30
0.0
 40
40.0
  1
11
 72
1
 11
2547.5
 21
8354.5
 31
0.0
100
AcDbText
 73
2
  0
TEXT
  5
9A
330
17
100
AcDbEntity
  8
SURVEY_NUMBERS
100
AcDbText
 10
6960.0
 20
6739.5
 30
0.0
 40
40.0
  1
79
 72
1
 11
6960.0
 21
6739.5
 31
0.0
100
AcDbText
 73
2
  0
TEXT
  5
9B
330
17
100
AcDbEntity
  8
SURVEY_NUMBERS
100
AcDbText
 10
3877.5
 20
3786.0
 30
0.0
 40
40.0
  1
59
 72
1
 11
3877.5
 21
3786.0
 31
0.0
100
AcDbText
 73
2
  0
TEXT
  5
9C
330
17
100
AcDbEntity
  8
SURVEY_NUMBERS
100
AcDbText
 10
7604.5
 20
5847.5
 30
0.0
 40
40.0
  1
89
 72
1
 11
7604.5
 21
5847.5
 31
0.0
100
AcDbText
 73
2
  0
TEXT
  5
9D
330
17
100
AcDbEntity
  8
SURVEY_NUMBERS
100
AcDbText
 10
3766.0
 20
6135.0
 30
0.0
 40
40.0
  1
73
 72
1
 11
3766.0
 21
6135.0
 31
0.0
100
AcDbText
 73
2
  0
TEXT
  5
9E
330
17
100
AcDbEntity
  8
SURVEY_NUMBERS
100
AcDbText
 10
831.0
 20
6418.5
 30
0.0
 40
40.0
  1
26
 72
1
 11
831.0
 21
6418.5
 31
0.0
100
AcDbText
 73
2
  0
TEXT
  5
9F
330
17
100
AcDbEntity
  8
SURVEY_NUMBERS
100
AcDbText
 10
2713.5
 20
1727.0
 30
0.0
 40
40.0
  1
55
 72
1
 11
2713.5
 21
1727.0
 31
0.0
100
AcDbText
 73
2
  0
TEXT
  5
A0
330
17
100
AcDbEntity
  8
SURVEY_NUMBERS
100
AcDbText
 10
7673.0
 20
5140.0
 30
0.0
 40
40.0
  1
93
 72
1
 11
7673.0
 21
5140.0
 31
0.0
100
AcDbText
 73
2
  0
TEXT
  5
A1
330
17
100
AcDbEntity
  8
SURVEY_NUMBERS
100
AcDbText
 10
1719.0
 20
4791.0
 30
0.0
 40
40.0
  1
42
 72
1
 11
1719.0
 21
4791.0
 31
0.0
100
AcDbText
 73
2
  0
TEXT
  5
A2
330
17
100
AcDbEntity
  8
SURVEY_NUMBERS
100
AcDbText
 10
820.0
 20
8215.0
 30
0.0
 40
40.0
  1
18
 72
1
 11
820.0
 21
8215.0
 31
0.0
100
AcDbText
 73
2
  0
TEXT
  5
A3
330
17
100
AcDbEntity
  8
SURVEY_NUMBERS
100
AcDbText
 10
1848.5
 20
4354.5
 30
0.0
 40
40.0
  1
44
 72
1
 11
1848.5
 21
4354.5
 31
0.0
100
AcDbText
 73
2
  0
TEXT
  5
A4
330
17
100
AcDbEntity
  8
SURVEY_NUMBERS
100
AcDbText
 10
1883.0
 20
4136.0
 30
0.0
 40
40.0
  1
45
 72
1
 11
1883.0
 21
4136.0
 31
0.0
100
AcDbText
 73
2
  0
TEXT
  5
A5
330
17
100
AcDbEntity
  8
SURVEY_NUMBERS
100
AcDbText
 10
3314.5
 20
5688.5
 30
0.0
 40
40.0
  1
35
 72
1
 11
3314.5
 21
5688.5
 31
0.0
100
AcDbText
 73
2
  0
TEXT
  5
A6
330
17
100
AcDbEntity
  8
SURVEY_NUMBERS
100
AcDbText
 10
1946.0
 20
8679.0
 30
0.0
 40
40.0
  1
13
 72
1
 11
1946.0
 21
8679.0
 31
0.0
100
AcDbText
 73
2
  0
TEXT
  5
A7
330
17
100
AcDbEntity
  8
SURVEY_NUMBERS
100
AcDbText
 10
7005.5
 20
5607.5
 30
0.0
 40
40.0
  1
78
 72
1
 11
7005.5
 21
5607.5
 31
0.0
100
AcDbText
 73
2
  0
TEXT
  5
A8
330
17
100
AcDbEntity
  8
SURVEY_NUMBERS
100
AcDbText
 10
5304.0
 20
5979.5
 30
0.0
 40
40.0
  1
76
 72
1
 11
5304.0
 21
5979.5
 31
0.0
100
AcDbText
 73
2
  0
TEXT
  5
A9
330
17
100
AcDbEntity
  8
SURVEY_NUMBERS
100
AcDbText
 10
578.5
 20
7847.0
 30
0.0
 40
40.0
  1
19
 72
1
 11
578.5
 21
7847.0
 31
0.0
100
AcDbText
 73
2
  0
TEXT
  5
AA
330
17
100
AcDbEntity
  8
SURVEY_NUMBERS
100
AcDbText
 10
4257.5
 20
6298.0
 30
0.0
 40
40.0
  1
74
 72
1
 11
4257.5
 21
6298.0
 31
0.0
100
AcDbText
 73
2
  0
TEXT
  5
AB
330
17
100
AcDbEntity
  8
SURVEY_NUMBERS
100
AcDbText
 10
7623.0
 20
7260.0
 30
0.0
 40
40.0
  1
80
 72
1
 11
7623.0
 21
7260.0
 31
0.0
100
AcDbText
 73
2
  0
TEXT
  5
AC
330
17
100
AcDbEntity
  8
SURVEY_NUMBERS
100
AcDbText
 10
3038.0
 20
8052.5
 30
0.0
 40
40.0
  1
10
 72
1
 11
3038.0
 21
8052.5
 31
0.0
100
AcDbText
 73
2
  0
TEXT
  5
AD
330
17
100
AcDbEntity
  8
SURVEY_NUMBERS
100
AcDbText
 10
1802.5
 20
4568.0
 30
0.0
 40
40.0
  1
43
 72
1
 11
1802.5
 21
4568.0
 31
0.0
100
AcDbText
 73
2
  0
TEXT
  5
AE
330
17
100
AcDbEntity
  8
SURVEY_NUMBERS
100
AcDbText
 10
2220.5
 20
6515.5
 30
0.0
 40
40.0
  1
30
 72
1
 11
2220.5
 21
6515.5
 31
0.0
100
AcDbText
 73
2
  0
TEXT
  5
AF
330
17
100
AcDbEntity
  8
SURVEY_NUMBERS
100
AcDbText
 10
7660.5
 20
6398.5
 30
0.0
 40
40.0
  1
88
 72
1
 11
7660.5
 21
6398.5
 31
0.0
100
AcDbText
 73
2
  0
TEXT
  5
B0
330
17
100
AcDbEntity
  8
SURVEY_NUMBERS
100
AcDbText
 10
1228.0
 20
7348.5
 30
0.0
 40
40.0
  1
21
 72
1
 11
1228.0
 21
7348.5
 31
0.0
100
AcDbText
 73
2
  0
TEXT
  5
B1
330
17
100
AcDbEntity
  8
SURVEY_NUMBERS
100
AcDbText
 10
1587.5
 20
5366.0
 30
0.0
 40
40.0
  1
40
 72
1
 11
1587.5
 21
5366.0
 31
0.0
100
AcDbText
 73
2
  0
TEXT
  5
B2
330
17
100
AcDbEntity
  8
SURVEY_NUMBERS
100
AcDbText
 10
6205.0
 20
5417.5
 30
0.0
 40
40.0
  1
71
 72
1
 11
6205.0
 21
5417.5
 31
0.0
100
AcDbText
 73
2
  0
TEXT
  5
B3
330
17
100
AcDbEntity
  8
SURVEY_NUMBERS
100
AcDbText
 10
2453.5
 20
5702.5
 30
0.0
 40
40.0
  1
39
 72
1
 11
2453.5
 21
5702.5
 31
0.0
100
AcDbText
 73
2
  0
TEXT
  5
B4
330
17
100
AcDbEntity
  8
SURVEY_NUMBERS
100
AcDbText
 10
2789.0
 20
6404.5
 30
0.0
 40
40.0
  1
31
 72
1
 11
2789.0
 21
6404.5
 31
0.0
100
AcDbText
 73
2
  0
ENDSEC
  0
SECTION
  2
OBJECTS
  0
DICTIONARY
  5
A
330
0
100
AcDbDictionary
280
0
281
1
  3
ACAD_COLOR
350
B
  3
ACAD_GROUP
350
C
  3
ACAD_LAYOUT
350
D
  3
ACAD_MATERIAL
350
E
  3
ACAD_MLEADERSTYLE
350
F
  3
ACAD_MLINESTYLE
350
10
  3
ACAD_PLOTSETTINGS
350
11
  3
ACAD_PLOTSTYLENAME
350
12
  3
ACAD_SCALELIST
350
14
  3
ACAD_TABLESTYLE
350
15
  3
ACAD_VISUALSTYLE
350
16
  3
EZDXF_META
350
2D
  0
DICTIONARY
  5
B
330
A
100
AcDbDictionary
280
0
281
1
  0
DICTIONARY
  5
C
330
A
100
AcDbDictionary
280
0
281
1
  0
DICTIONARY
  5
D
330
A
100
AcDbDictionary
280
0
281
1
  3
Model
350
1A
  3
Layout1
350
1E
  0
DICTIONARY
  5
E
330
A
100
AcDbDictionary
280
0
281
1
  3
ByBlock
350
1F
  3
ByLayer
350
20
  3
Global
350
21
  0
DICTIONARY
  5
F
330
A
100
AcDbDictionary
280
0
281
1
  3
Standard
350
2C
  0
DICTIONARY
  5
10
330
A
100
AcDbDictionary
280
0
281
1
  3
Standard
350
22
  0
DICTIONARY
  5
11
330
A
100
AcDbDictionary
280
0
281
1
  0
ACDBDICTIONARYWDFLT
  5
12
330
A
100
AcDbDictionary
280
0
281
1
  3
Normal
350
13
100
AcDbDictionaryWithDefault
340
13
  0
ACDBPLACEHOLDER
  5
13
330
12
  0
DICTIONARY
  5
14
330
A
100
AcDbDictionary
280
0
281
1
  0
DICTIONARY
  5
15
330
A
100
AcDbDictionary
280
0
281
1
  0
DICTIONARY
  5
16
330
A
100
AcDbDictionary
280
0
281
1
  0
LAYOUT
  5
1A
330
D
100
AcDbPlotSettings
  1

  2
Adobe PDF
  4
A3
  6

 40
7.5
 41
20.0
 42
7.5
 43
20.0
 44
420.0
 45
297.0
 46
0.0
 47
0.0
 48
0.0
 49
0.0
140
0.0
141
0.0
142
1.0
143
1.0
 70
1024
 72
1
 73
0
 74
5
  7

 75
16
 76
0
 77
2
 78
300
147
1.0
148
0.0
149
0.0
100
AcDbLayout
  1
Model
 70
1
 71
0
 10
0.0
 20
0.0
 11
420.0
 21
297.0
 12
0.0
 22
0.0
 32
0.0
 14
1e+20
 24
1e+20
 34
1e+20
 15
-1e+20
 25
-1e+20
 35
-1e+20
146
0.0
 13
0.0
 23
0.0
 33
0.0
 16
1.0
 26
0.0
 36
0.0
 17
0.0
 27
1.0
 37
0.0
 76
1
330
17
  0
LAYOUT
  5
1E
330
D
100
AcDbPlotSettings
  1

  2
Adobe PDF
  4
A3
  6

 40
7.5
 41
20.0
 42
7.5
 43
20.0
 44
420.0
 45
297.0
 46
0.0
 47
0.0
 48
0.0
 49
0.0
140
0.0
141
0.0
142
1.0
143
1.0
 70
0
 72
1
 73
0
 74
5
  7

 75
16
 76
0
 77
2
 78
300
147
1.0
148
0.0
149
0.0
100
AcDbLayout
  1
Layout1
 70
1
 71
1
 10
0.0
 20
0.0
 11
420.0
 21
297.0
 12
0.0
 22
0.0
 32
0.0
 14
1e+20
 24
1e+20
 34
1e+20
 15
-1e+20
 25
-1e+20
 35
-1e+20
146
0.0
 13
0.0
 23
0.0
 33
0.0
 16
1.0
 26
0.0
 36
0.0
 17
0.0
 27
1.0
 37
0.0
 76
1
330
1B
  0
MATERIAL
  5
1F
102
{ACAD_REACTORS
330
E
102
}
330
E
100
AcDbMaterial
  1
ByBlock
  2

 70
0
 40
1.0
 71
1
 41
1.0
 91
-1023410177
 42
1.0
 72
1
  3

 73
1
 74
1
 75
1
 44
0.5
 73
0
 45
1.0
 46
1.0
 77
1
  4

 78
1
 79
1
170
1
 48
1.0
171
1
  6

172
1
173
1
174
1
140
1.0
141
1.0
175
1
  7

176
1
177
1
178
1
143
1.0
179
1
  8

270
1
271
1
272
1
145
1.0
146
1.0
273
1
  9

274
1
275
1
276
1
 42
1.0
 72
1
  3

 73
1
 74
1
 75
1
 94
63
  0
MATERIAL
  5
20
102
{ACAD_REACTORS
330
E
102
}
330
E
100
AcDbMaterial
  1
ByLayer
  2

 70
0
 40
1.0
 71
1
 41
1.0
 91
-1023410177
 42
1.0
 72
1
  3

 73
1
 74
1
 75
1
 44
0.5
 73
0
 45
1.0
 46
1.0
 77
1
  4

 78
1
 79
1
170
1
 48
1.0
171
1
  6

172
1
173
1
174
1
140
1.0
141
1.0
175
1
  7

176
1
177
1
178
1
143
1.0
179
1
  8

270
1
271
1
272
1
145
1.0
146
1.0
273
1
  9

274
1
275
1
276
1
 42
1.0
 72
1
  3

 73
1
 74
1
 75
1
 94
63
  0
MATERIAL
  5
21
102
{ACAD_REACTORS
330
E
102
}
330
E
100
AcDbMaterial
  1
Global
  2

 70
0
 40
1.0
 71
1
 41
1.0
 91
-1023410177
 42
1.0
 72
1
  3

 73
1
 74
1
 75
1
 44
0.5
 73
0
 45
1.0
 46
1.0
 77
1
  4

 78
1
 79
1
170
1
 48
1.0
171
1
  6

172
1
173
1
174
1
140
1.0
141
1.0
175
1
  7

176
1
177
1
178
1
143
1.0
179
1
  8

270
1
271
1
272
1
145
1.0
146
1.0
273
1
  9

274
1
275
1
276
1
 42
1.0
 72
1
  3

 73
1
 74
1
 75
1
 94
63
  0
MLINESTYLE
  5
22
102
{ACAD_REACTORS
330
10
102
}
330
10
100
AcDbMlineStyle
  2
Standard
 70
0
  3

 62
256
 51
90.0
 52
90.0
 71
2
 49
0.5
 62
256
  6
BYLAYER
 49
-0.5
 62
256
  6
BYLAYER
  0
MLEADERSTYLE
  5
2C
102
{ACAD_REACTORS
330
F
102
}
330
F
100
AcDbMLeaderStyle
179
2
170
2
171
1
172
0
 90
2
 40
0.0
 41
0.0
173
1
 91
-1056964608
 92
-2
290
1
 42
2.0
291
1
 43
8.0
  3
Standard
 44
4.0
300

342
29
174
1
175
1
176
0
178
1
 93
-1056964608
 45
4.0
292
0
297
0
 46
4.0
 94
-1056964608
 47
1.0
 49
1.0
140
1.0
294
1
141
0.0
177
0
142
1.0
295
0
296
0
143
3.75
271
0
272
9
273
9
  0
DICTIONARY
  5
2D
330
A
100
AcDbDictionary
281
1
  3
CREATED_BY_EZDXF
350
2E
  3
WRITTEN_BY_EZDXF
350
B7
  0
DICTIONARYVAR
  5
2E
330
2D
100
DictionaryVariables
280
0
  1
1.1.4 @ 2026-08-03T18:05:47.854411+00:00
  0
DICTIONARYVAR
  5
B7
330
2D
100
DictionaryVariables
280
0
  1
1.1.4 @ 2026-08-03T18:05:47.870105+00:00
  0
ENDSEC
  0
EOF
